# xmcd
#
# Track frame offsets:
#	150
#	17967
#	36897
#	53118
#	67983
#	87419
#	104892
#	121955
#	140742
#	159666
#
# Disc length: 2298 seconds
#
# Revision: 16
# Processed by: cddbd v1.5.2PL0 Copyright (c) Steve Scherf et al.
# Submitted via: Jack! The Knife 20 Magnifico
#
DISCID=9008f80a
DTITLE=Stryper - In God We Trust
DYEAR=1988
DGENRE=Metal
TTITLE0=In God We Trust
TTITLE1=Always There For You
TTITLE2=Keep The Fire Burning
TTITLE3=I Believe In You
TTITLE4=The Writings On The Wall
TTITLE5=It's Up 2 You
TTITLE6=The World Of You And I
TTITLE7=Come To The Everlife
TTITLE8=Lonely
TTITLE9=The Reign
EXTD=Stryper and Michael Lloyd
EXTT0=M. Sweet, R. Sweet
EXTT1=Michael Sweet
EXTT2=Michael Sweet
EXTT3=Michael Sweet
EXTT4=Michael Sweet
EXTT5=Michael Sweet
EXTT6=Michael Sweet
EXTT7=Oz Fox
EXTT8=Michael Sweet
EXTT9=Oz Fox
PLAYORDER=
